PathFileType	4	(X/Y/Z)	SUBJ89_2_walk_RCNL2025.trc
DataRate	CameraRate	NumFrames	NumMarkers	Units	OrigDataRate	OrigDataStartFrame	OrigNumFrames
100	100	12	25	mm	100	206	274
Frame#	Time	R_Shoulder			L_Shoulder			C7			J_Notch			R_Elbow			L_Elbow			R_Wrist			L_Wrist			R_Asis			L_Asis			Sacral			Thoracic			Sternum			R_Thigh_Lateral			R_Knee_Lateral			R_Shank_Lateral			R_Ankle_Lateral			R_Heel			R_Toe			L_Thigh_Lateral			L_Knee_Lateral			L_Shank_Lateral			L_Ankle_Lateral			L_Heel			L_Toe		
		X1	Y1	Z1	X2	Y2	Z2	X3	Y3	Z3	X4	Y4	Z4	X5	Y5	Z5	X6	Y6	Z6	X7	Y7	Z7	X8	Y8	Z8	X9	Y9	Z9	X10	Y10	Z10	X11	Y11	Z11	X12	Y12	Z12	X13	Y13	Z13	X14	Y14	Z14	X15	Y15	Z15	X16	Y16	Z16	X17	Y17	Z17	X18	Y18	Z18	X19	Y19	Z19	X20	Y20	Z20	X21	Y21	Z21	X22	Y22	Z22	X23	Y23	Z23	X24	Y24	Z24	X25	Y25	Z25
206	2.05000000	1875.456543	1368.940430	19.238142	1833.915527	1383.561279	-393.487732	1787.927612	1466.905762	-175.357300	1907.897705	1342.079590	-187.939117	1826.315918	1037.171997	75.965164	1739.507812	1054.190430	-433.810303	2005.388733	833.052612	48.331396	1769.394897	791.992645	-476.434586	1877.644897	946.615112	-59.150761	1900.274414	944.488403	-297.870178	1723.788452	1008.186523	-186.867462	1705.029785	1291.674316	-177.056473	1938.197632	1193.241333	-198.523361	1727.928467	580.299805	-12.395476	1676.780884	471.326752	-74.916222	1554.214111	277.515991	-38.167313	1450.075195	100.074074	-123.549957	1412.250000	107.138222	-167.257874	1590.458374	27.124428	-141.006882	1970.745728	534.684265	-384.621460	2004.598511	471.675964	-309.566803	2045.066895	241.382034	-346.190155	2122.345215	57.391705	-275.935608	2084.419434	53.612915	-225.010330	2275.108154	76.260063	-260.668640
207	2.06000000	1891.222900	1367.978149	18.153772	1849.271118	1381.503174	-394.662994	1803.440918	1465.708984	-176.716476	1923.551147	1340.899414	-189.022278	1840.930664	1036.221558	74.685707	1753.779663	1052.460449	-433.595520	2018.734131	830.824371	48.768211	1779.276917	790.033630	-476.677826	1893.963989	944.617188	-59.369591	1916.261963	944.243469	-298.186920	1739.865845	1007.019104	-186.613480	1720.814697	1290.462769	-177.772324	1954.191772	1192.162109	-199.158340	1743.431763	578.718750	-12.320271	1691.834229	469.817139	-74.452118	1564.198120	279.483429	-37.164284	1453.957397	105.351860	-121.482941	1416.206665	114.109047	-164.706863	1590.410278	26.985645	-140.821396	1990.189575	536.604553	-383.093048	2022.705444	472.098816	-307.942932	2058.317139	240.947906	-343.829102	2129.142578	55.489189	-273.576416	2090.643555	53.222729	-223.043594	2282.339844	67.406715	-256.173065
208	2.07000000	1907.118896	1367.441650	17.013439	1864.717529	1379.783203	-395.880646	1819.067383	1464.961792	-178.141663	1939.269531	1340.139038	-190.169342	1855.383911	1035.708008	73.290482	1768.291992	1051.019409	-433.380859	2031.390442	828.609375	49.270578	1789.787048	788.422485	-476.711853	1910.456787	942.873230	-59.728405	1932.236206	944.652710	-298.607056	1755.981079	1006.290649	-186.132019	1736.666260	1289.681763	-178.485001	1970.291748	1191.530029	-199.865875	1760.055908	577.084778	-12.362400	1708.263794	468.185730	-73.913940	1575.224609	281.800201	-36.191097	1458.867554	111.299828	-119.408302	1421.427490	121.929634	-162.268539	1590.389160	26.812927	-140.621155	2010.026367	539.410095	-381.533569	2041.029297	473.158783	-306.317688	2071.793213	241.290451	-342.019501	2134.570312	54.030167	-271.760620	2095.344971	53.344055	-221.747955	2288.174805	58.377831	-252.063751
209	2.08000000	1923.119507	1367.369263	15.840275	1880.234009	1378.460815	-397.103729	1834.778687	1464.691528	-179.590988	1955.025879	1339.829834	-191.355057	1869.672607	1035.680176	71.800087	1783.036865	1049.918701	-433.146240	2043.335449	826.477600	49.817999	1800.966492	787.199463	-476.543472	1927.037598	941.443115	-60.218895	1948.159790	945.700195	-299.109192	1772.075562	1006.006531	-185.452789	1752.546143	1289.345215	-179.161087	1986.461914	1191.366699	-200.630630	1777.879761	575.411194	-12.482849	1726.161133	466.451996	-73.252602	1587.386719	284.532684	-35.251663	1465.050415	117.946548	-117.370781	1428.199097	130.570938	-160.035004	1590.462280	26.620455	-140.403503	2030.260864	543.026917	-379.911011	2059.402100	474.772827	-304.662872	2085.610352	242.321213	-340.780731	2138.958984	53.086441	-270.396118	2098.924561	53.911678	-221.004898	2292.901855	49.967510	-248.533386
210	2.09000000	1939.190430	1367.781982	14.655133	1895.796875	1377.590698	-398.293243	1850.525513	1464.883667	-181.017090	1970.792603	1339.973022	-192.547348	1883.793579	1036.175415	70.243668	1798.000000	1049.208862	-432.871338	2054.556946	824.498352	50.385012	1812.851562	786.404999	-476.185333	1943.620117	940.374878	-60.832333	1964.005005	947.330200	-299.677277	1788.104614	1006.138367	-184.635941	1768.412231	1289.428467	-179.775497	2002.663574	1191.662354	-201.427887	1796.942871	573.717896	-12.623078	1745.584106	464.638611	-72.425629	1600.798828	287.712738	-34.334705	1472.756958	125.276360	-115.391647	1436.812134	139.942291	-158.074478	1590.755005	26.444462	-140.165680	2050.800781	547.227051	-378.185638	2077.599609	476.755371	-302.936005	2099.545654	243.799835	-339.979065	2142.507568	52.629196	-269.326477	2101.673096	54.785709	-220.611908	2296.714600	42.754383	-245.709473
211	2.10000000	1955.285645	1368.673584	13.474761	1911.382324	1377.211914	-399.416351	1866.239502	1465.482178	-182.372711	1986.540405	1340.538330	-193.711182	1897.739746	1037.204712	68.659988	1813.159668	1048.927002	-432.539551	2065.060791	822.731110	50.944498	1825.470886	786.066193	-475.653397	1960.122925	939.699951	-61.556782	1979.752197	949.447693	-300.299500	1804.037720	1006.634644	-183.765045	1784.221558	1289.879028	-180.320038	2018.853638	1192.380127	-202.223846	1817.218140	572.034485	-12.715457	1766.528931	462.770721	-71.414574	1615.588135	291.318848	-33.416801	1482.220703	133.205261	-113.473579	1447.531372	149.896805	-156.410004	1591.478027	26.354710	-139.901291	2071.375977	551.635864	-376.338440	2095.333252	478.854126	-301.113647	2113.111816	245.435257	-339.390472	2145.358643	52.576988	-268.403473	2103.803711	55.817795	-220.368744	2299.769043	37.022293	-243.599609
212	2.11000000	1971.343994	1370.005127	12.314039	1926.967163	1377.337036	-400.452515	1881.846924	1466.407227	-183.616913	2002.236084	1341.473145	-194.813675	1911.496094	1038.741455	67.093010	1828.487549	1049.083618	-432.140625	2074.875854	821.216309	51.471933	1838.841370	786.183685	-474.965668	1976.474243	939.433228	-62.370369	1995.388306	951.923889	-300.963531	1819.851440	1007.432251	-182.934906	1799.934326	1290.633789	-180.804642	2034.980225	1193.461548	-202.980988	1838.594360	570.402893	-12.699264	1788.912476	460.877350	-70.237976	1631.877319	295.266602	-32.472328	1493.630859	141.577072	-111.611816	1460.550049	160.236084	-155.013885	1592.954590	26.467056	-139.590393	2091.506104	555.784180	-374.403076	2112.281006	480.811249	-299.215851	2125.747314	246.979126	-338.801849	2147.629150	52.823242	-267.527161	2105.473633	56.885513	-220.131851	2302.196777	32.778732	-242.085922
213	2.12000000	1987.291382	1371.705688	11.190303	1942.531128	1377.946289	-401.394775	1897.287720	1467.580322	-184.722412	2017.843262	1342.714355	-195.827469	1925.039062	1040.717041	65.585403	1843.950073	1049.654541	-431.672241	2084.055420	819.969788	51.948982	1852.965210	786.725342	-474.141129	1992.614624	939.575867	-63.235455	2010.905151	954.607422	-301.650818	1835.524048	1008.468872	-182.235992	1815.515991	1291.634644	-181.253433	2050.983154	1194.835083	-203.666397	1860.873291	568.875122	-12.538894	1812.576660	458.996338	-68.951408	1649.767090	299.408203	-31.485464	1507.105469	150.190567	-109.805916	1475.936279	170.724304	-153.829376	1595.638428	26.951012	-139.183640	2110.547119	559.212219	-372.482971	2128.151611	482.418549	-297.304810	2136.994141	248.266815	-338.081238	2149.415527	53.255623	-266.648041	2106.794189	57.902424	-219.824722	2304.099854	29.844995	-240.994659
214	2.13000000	2003.049072	1373.681152	10.127118	1958.058228	1378.987915	-402.245300	1912.530151	1468.946045	-185.682404	2033.323975	1344.198120	-196.731674	1938.341187	1043.029297	64.173531	1859.513428	1050.584839	-431.141724	2092.674927	818.983765	52.366919	1867.829651	787.628510	-473.198807	2008.500122	940.119934	-64.099579	2026.295044	957.342224	-302.333374	1851.031982	1009.695435	-181.739212	1830.940186	1292.838257	-181.698120	2066.800293	1196.426025	-204.258102	1883.783325	567.510986	-12.234321	1837.311157	457.183960	-67.631859	1669.322632	303.548187	-30.452986	1522.661865	158.841217	-108.069290	1493.583618	181.117416	-152.801147	1600.106689	28.020477	-138.589661	2127.846436	561.603394	-370.733643	2142.744385	483.550415	-295.465607	2146.588867	249.220245	-337.200562	2150.793457	53.774048	-265.758881	2107.842773	58.818153	-219.426712	2305.559326	27.960306	-240.181488
215	2.14000000	2018.543457	1375.827148	9.154478	1973.536621	1380.388062	-403.008942	1927.574097	1470.478271	-186.512680	2048.641846	1345.868164	-197.512604	1951.376831	1045.559204	62.883537	1875.150513	1051.798462	-430.567688	2100.824097	818.233276	52.728849	1883.411011	788.810974	-472.156509	2024.101807	941.052612	-64.904106	2041.549316	959.989441	-302.976227	1866.352417	1011.082275	-181.485550	1846.189575	1294.220337	-182.168747	2082.377441	1198.170532	-204.747009	1907.015991	566.381714	-11.815505	1862.886108	455.525146	-66.351990	1690.558960	307.489319	-29.376013	1540.197632	167.354706	-106.434174	1513.197754	191.183289	-151.890610	1607.012695	29.895166	-137.678696	2142.961182	562.871216	-369.305145	2155.977539	484.171173	-293.785156	2154.480225	249.834152	-336.220642	2151.827393	54.299248	-264.886932	2108.678467	59.614021	-218.960190	2306.644287	26.852879	-239.557404
216	2.15000000	2033.715698	1378.045288	8.304424	1988.955322	1382.063477	-403.688995	1942.440430	1472.172607	-187.243011	2063.765869	1347.681641	-198.164017	1964.124268	1048.190430	61.728283	1890.848267	1053.211792	-429.977722	2108.596558	817.686188	53.050112	1899.680359	790.184967	-471.030594	2039.406494	942.358643	-65.596321	2056.659180	962.447144	-303.545074	1881.469971	1012.616882	-181.482117	1861.256104	1295.772217	-182.686462	2097.675781	1200.022095	-205.135788	1930.279053	565.575378	-11.324697	1889.083862	454.137482	-65.157104	1713.408569	311.100189	-28.259541	1559.515137	175.593445	-104.949974	1534.371704	200.696030	-151.078979	1616.988770	32.729870	-136.307510	2155.828125	563.145203	-368.275696	2167.879639	484.321198	-292.338562	2160.803467	250.151733	-335.251556	2152.580566	54.775406	-264.078400	2109.352051	60.294788	-218.473862	2307.423096	26.278177	-239.069183
217	2.16000000	2048.526855	1380.257202	7.604729	2004.300903	1383.937012	-404.287476	1957.155884	1474.029297	-187.899399	2078.674561	1349.609497	-198.686920	1976.566040	1050.830078	60.706211	1906.609985	1054.746826	-429.401947	2116.076294	817.313538	53.356903	1916.609253	791.672394	-469.837204	2054.417236	944.018860	-66.140877	2071.617676	964.661621	-304.015381	1896.381104	1014.297180	-181.702957	1876.138916	1297.492920	-183.263336	2112.675293	1201.953247	-205.435440	1953.353394	565.191772	-10.797269	1915.718872	453.161957	-64.055977	1737.690430	314.371338	-27.129602	1580.386719	183.432831	-103.671661	1556.729004	209.430283	-150.377411	1630.512573	36.535892	-134.359924	2166.774170	562.686951	-367.623596	2178.558838	484.090942	-291.180939	2165.830078	250.236237	-334.408783	2153.120605	55.172024	-263.378723	2109.905518	60.877769	-218.023010	2307.961426	26.038221	-238.683472
